<mxfile host="app.diagrams.net" modified="2021-01-13T02:30:55.532Z" agent="5.0 (X11; Linux x86_64) AppleWebKit/537.36 (KHTML, like Gecko) Chrome/87.0.4280.141 Safari/537.36" etag="eyp-B1R6R4qdrIJ3x7Oo" version="14.1.9" type="github">
  <diagram id="3a8R_cc8TsDuQweY0Dfc" name="Page-1">
    <mxGraphModel dx="2073" dy="1293" grid="1" gridSize="10" guides="1" tooltips="1" connect="1" arrows="1" fold="1" page="0" pageScale="1" pageWidth="827" pageHeight="1169" math="0" shadow="0">
      <root>
        <mxCell id="0" />
        <mxCell id="1" parent="0" />
        <mxCell id="W8-nHX-Yf4Dh4idE8KpP-1" value="" style="rounded=0;whiteSpace=wrap;html=1;strokeWidth=3;fillColor=#dae8fc;strokeColor=#6c8ebf;" vertex="1" parent="1">
          <mxGeometry x="-110" y="260" width="230" height="40" as="geometry" />
        </mxCell>
        <mxCell id="W8-nHX-Yf4Dh4idE8KpP-2" value="&lt;b&gt;&lt;font style=&quot;font-size: 14px&quot;&gt;NETWORK BRIDGE&lt;/font&gt;&lt;/b&gt;" style="rounded=0;whiteSpace=wrap;html=1;strokeWidth=3;opacity=0;" vertex="1" parent="1">
          <mxGeometry x="-70" y="250" width="140" height="60" as="geometry" />
        </mxCell>
        <mxCell id="W8-nHX-Yf4Dh4idE8KpP-3" value="&lt;b&gt;&lt;font style=&quot;font-size: 14px&quot;&gt;REDIS MASTER&lt;/font&gt;&lt;/b&gt;" style="rounded=0;whiteSpace=wrap;html=1;strokeWidth=3;opacity=0;" vertex="1" parent="1">
          <mxGeometry x="-160" y="20" width="140" height="60" as="geometry" />
        </mxCell>
        <mxCell id="W8-nHX-Yf4Dh4idE8KpP-4" value="" style="shape=cube;whiteSpace=wrap;html=1;boundedLbl=1;backgroundOutline=1;darkOpacity=0.05;darkOpacity2=0.1;strokeWidth=3;" vertex="1" parent="1">
          <mxGeometry x="-150" y="80" width="120" height="80" as="geometry" />
        </mxCell>
        <mxCell id="W8-nHX-Yf4Dh4idE8KpP-5" value="" style="shape=cube;whiteSpace=wrap;html=1;boundedLbl=1;backgroundOutline=1;darkOpacity=0.05;darkOpacity2=0.1;strokeWidth=3;" vertex="1" parent="1">
          <mxGeometry x="25" y="80" width="120" height="80" as="geometry" />
        </mxCell>
        <mxCell id="W8-nHX-Yf4Dh4idE8KpP-6" value="" style="shape=cube;whiteSpace=wrap;html=1;boundedLbl=1;backgroundOutline=1;darkOpacity=0.05;darkOpacity2=0.1;strokeWidth=3;" vertex="1" parent="1">
          <mxGeometry x="255" y="80" width="120" height="80" as="geometry" />
        </mxCell>
        <mxCell id="W8-nHX-Yf4Dh4idE8KpP-8" value="" style="endArrow=none;html=1;strokeWidth=2;exitX=0.063;exitY=-0.025;exitDx=0;exitDy=0;exitPerimeter=0;" edge="1" parent="1">
          <mxGeometry width="50" height="50" relative="1" as="geometry">
            <mxPoint x="92.04999999999995" y="260" as="sourcePoint" />
            <mxPoint x="90" y="160" as="targetPoint" />
          </mxGeometry>
        </mxCell>
        <mxCell id="W8-nHX-Yf4Dh4idE8KpP-10" value="" style="endArrow=none;html=1;strokeWidth=2;exitX=0.063;exitY=-0.025;exitDx=0;exitDy=0;exitPerimeter=0;" edge="1" parent="1">
          <mxGeometry width="50" height="50" relative="1" as="geometry">
            <mxPoint x="-77.95000000000005" y="260" as="sourcePoint" />
            <mxPoint x="-80" y="160" as="targetPoint" />
          </mxGeometry>
        </mxCell>
        <mxCell id="W8-nHX-Yf4Dh4idE8KpP-11" value="&lt;b&gt;&lt;font style=&quot;font-size: 14px&quot;&gt;ELASTIC 01&lt;/font&gt;&lt;/b&gt;" style="rounded=0;whiteSpace=wrap;html=1;strokeWidth=3;opacity=0;" vertex="1" parent="1">
          <mxGeometry x="15" y="20" width="140" height="60" as="geometry" />
        </mxCell>
        <mxCell id="W8-nHX-Yf4Dh4idE8KpP-12" value="&lt;b&gt;&lt;font style=&quot;font-size: 14px&quot;&gt;RABBITMQ&lt;/font&gt;&lt;/b&gt;" style="rounded=0;whiteSpace=wrap;html=1;strokeWidth=3;opacity=0;" vertex="1" parent="1">
          <mxGeometry x="245" y="20" width="140" height="60" as="geometry" />
        </mxCell>
        <mxCell id="W8-nHX-Yf4Dh4idE8KpP-13" value="" style="shape=cube;whiteSpace=wrap;html=1;boundedLbl=1;backgroundOutline=1;darkOpacity=0.05;darkOpacity2=0.1;strokeWidth=3;" vertex="1" parent="1">
          <mxGeometry x="-150" y="400" width="120" height="80" as="geometry" />
        </mxCell>
        <mxCell id="W8-nHX-Yf4Dh4idE8KpP-14" value="" style="shape=cube;whiteSpace=wrap;html=1;boundedLbl=1;backgroundOutline=1;darkOpacity=0.05;darkOpacity2=0.1;strokeWidth=3;" vertex="1" parent="1">
          <mxGeometry x="30" y="400" width="120" height="80" as="geometry" />
        </mxCell>
        <mxCell id="W8-nHX-Yf4Dh4idE8KpP-15" value="" style="endArrow=none;html=1;strokeWidth=2;exitX=0.063;exitY=-0.025;exitDx=0;exitDy=0;exitPerimeter=0;" edge="1" parent="1">
          <mxGeometry width="50" height="50" relative="1" as="geometry">
            <mxPoint x="-77.95000000000005" y="400" as="sourcePoint" />
            <mxPoint x="-80" y="300" as="targetPoint" />
          </mxGeometry>
        </mxCell>
        <mxCell id="W8-nHX-Yf4Dh4idE8KpP-16" value="" style="endArrow=none;html=1;strokeWidth=2;exitX=0.063;exitY=-0.025;exitDx=0;exitDy=0;exitPerimeter=0;" edge="1" parent="1">
          <mxGeometry width="50" height="50" relative="1" as="geometry">
            <mxPoint x="92.04999999999995" y="400" as="sourcePoint" />
            <mxPoint x="90" y="300" as="targetPoint" />
          </mxGeometry>
        </mxCell>
        <mxCell id="W8-nHX-Yf4Dh4idE8KpP-17" value="&lt;b&gt;&lt;font style=&quot;font-size: 14px&quot;&gt;REDIS SLAVE&lt;/font&gt;&lt;/b&gt;" style="rounded=0;whiteSpace=wrap;html=1;strokeWidth=3;opacity=0;" vertex="1" parent="1">
          <mxGeometry x="-150" y="480" width="140" height="60" as="geometry" />
        </mxCell>
        <mxCell id="W8-nHX-Yf4Dh4idE8KpP-18" value="&lt;b&gt;&lt;font style=&quot;font-size: 14px&quot;&gt;ELASTIC 02&lt;/font&gt;&lt;/b&gt;" style="rounded=0;whiteSpace=wrap;html=1;strokeWidth=3;opacity=0;" vertex="1" parent="1">
          <mxGeometry x="20" y="480" width="140" height="60" as="geometry" />
        </mxCell>
        <mxCell id="W8-nHX-Yf4Dh4idE8KpP-19" value="&lt;code&gt;172.31.0.4&lt;/code&gt;" style="rounded=0;whiteSpace=wrap;html=1;strokeWidth=3;opacity=0;" vertex="1" parent="1">
          <mxGeometry x="10" width="140" height="60" as="geometry" />
        </mxCell>
        <mxCell id="W8-nHX-Yf4Dh4idE8KpP-20" value="&lt;code&gt;172.31.0.6&lt;/code&gt;" style="rounded=0;whiteSpace=wrap;html=1;strokeWidth=3;opacity=0;" vertex="1" parent="1">
          <mxGeometry x="20" y="510" width="140" height="60" as="geometry" />
        </mxCell>
        <mxCell id="W8-nHX-Yf4Dh4idE8KpP-21" value="&lt;code&gt;172.31.0.3&lt;/code&gt;" style="rounded=0;whiteSpace=wrap;html=1;strokeWidth=3;opacity=0;" vertex="1" parent="1">
          <mxGeometry x="-170" width="140" height="60" as="geometry" />
        </mxCell>
        <mxCell id="W8-nHX-Yf4Dh4idE8KpP-23" value="&lt;code&gt;172.31.0.2&lt;/code&gt;" style="rounded=0;whiteSpace=wrap;html=1;strokeWidth=3;opacity=0;" vertex="1" parent="1">
          <mxGeometry x="-160" y="510" width="140" height="60" as="geometry" />
        </mxCell>
        <mxCell id="W8-nHX-Yf4Dh4idE8KpP-24" value="" style="rounded=0;whiteSpace=wrap;html=1;strokeWidth=3;fillColor=#dae8fc;strokeColor=#6c8ebf;" vertex="1" parent="1">
          <mxGeometry x="530" y="260" width="240" height="40" as="geometry" />
        </mxCell>
        <mxCell id="W8-nHX-Yf4Dh4idE8KpP-25" value="&lt;b&gt;&lt;font style=&quot;font-size: 14px&quot;&gt;NETWORK BRIDGE&lt;/font&gt;&lt;/b&gt;" style="rounded=0;whiteSpace=wrap;html=1;strokeWidth=3;opacity=0;" vertex="1" parent="1">
          <mxGeometry x="580" y="250" width="140" height="60" as="geometry" />
        </mxCell>
        <mxCell id="W8-nHX-Yf4Dh4idE8KpP-26" value="&lt;b&gt;&lt;font style=&quot;font-size: 14px&quot;&gt;HA PROXY&lt;/font&gt;&lt;/b&gt;" style="rounded=0;whiteSpace=wrap;html=1;strokeWidth=3;opacity=0;" vertex="1" parent="1">
          <mxGeometry x="482" y="20" width="140" height="60" as="geometry" />
        </mxCell>
        <mxCell id="W8-nHX-Yf4Dh4idE8KpP-27" value="" style="shape=cube;whiteSpace=wrap;html=1;boundedLbl=1;backgroundOutline=1;darkOpacity=0.05;darkOpacity2=0.1;strokeWidth=3;" vertex="1" parent="1">
          <mxGeometry x="492" y="80" width="120" height="80" as="geometry" />
        </mxCell>
        <mxCell id="W8-nHX-Yf4Dh4idE8KpP-28" value="" style="shape=cube;whiteSpace=wrap;html=1;boundedLbl=1;backgroundOutline=1;darkOpacity=0.05;darkOpacity2=0.1;strokeWidth=3;" vertex="1" parent="1">
          <mxGeometry x="667" y="80" width="120" height="80" as="geometry" />
        </mxCell>
        <mxCell id="W8-nHX-Yf4Dh4idE8KpP-30" value="" style="endArrow=none;html=1;strokeWidth=2;exitX=0.063;exitY=-0.025;exitDx=0;exitDy=0;exitPerimeter=0;" edge="1" parent="1">
          <mxGeometry width="50" height="50" relative="1" as="geometry">
            <mxPoint x="734.0500000000002" y="260" as="sourcePoint" />
            <mxPoint x="732" y="160" as="targetPoint" />
          </mxGeometry>
        </mxCell>
        <mxCell id="W8-nHX-Yf4Dh4idE8KpP-32" value="" style="endArrow=none;html=1;strokeWidth=2;exitX=0.063;exitY=-0.025;exitDx=0;exitDy=0;exitPerimeter=0;" edge="1" parent="1">
          <mxGeometry width="50" height="50" relative="1" as="geometry">
            <mxPoint x="564.0500000000002" y="260" as="sourcePoint" />
            <mxPoint x="562" y="160" as="targetPoint" />
          </mxGeometry>
        </mxCell>
        <mxCell id="W8-nHX-Yf4Dh4idE8KpP-33" value="&lt;b&gt;&lt;font style=&quot;font-size: 14px&quot;&gt;NGINX&lt;/font&gt;&lt;/b&gt;" style="rounded=0;whiteSpace=wrap;html=1;strokeWidth=3;opacity=0;" vertex="1" parent="1">
          <mxGeometry x="657" y="20" width="140" height="60" as="geometry" />
        </mxCell>
        <mxCell id="W8-nHX-Yf4Dh4idE8KpP-35" value="&lt;code&gt;172.25.0.3&lt;/code&gt;" style="rounded=0;whiteSpace=wrap;html=1;strokeWidth=3;opacity=0;" vertex="1" parent="1">
          <mxGeometry x="657" width="140" height="60" as="geometry" />
        </mxCell>
        <mxCell id="W8-nHX-Yf4Dh4idE8KpP-36" value="&lt;code&gt;172.25.0.2&lt;/code&gt;" style="rounded=0;whiteSpace=wrap;html=1;strokeWidth=3;opacity=0;" vertex="1" parent="1">
          <mxGeometry x="482" width="140" height="60" as="geometry" />
        </mxCell>
        <mxCell id="W8-nHX-Yf4Dh4idE8KpP-37" value="" style="rounded=0;whiteSpace=wrap;html=1;strokeWidth=3;fillColor=#dae8fc;strokeColor=#6c8ebf;" vertex="1" parent="1">
          <mxGeometry x="200" y="260" width="230" height="40" as="geometry" />
        </mxCell>
        <mxCell id="W8-nHX-Yf4Dh4idE8KpP-38" value="&lt;b&gt;&lt;font style=&quot;font-size: 14px&quot;&gt;NETWORK BRIDGE&lt;/font&gt;&lt;/b&gt;" style="rounded=0;whiteSpace=wrap;html=1;strokeWidth=3;opacity=0;" vertex="1" parent="1">
          <mxGeometry x="255" y="250" width="140" height="60" as="geometry" />
        </mxCell>
        <mxCell id="W8-nHX-Yf4Dh4idE8KpP-40" value="" style="rounded=0;whiteSpace=wrap;html=1;strokeWidth=3;fillColor=#d5e8d4;strokeColor=#82b366;" vertex="1" parent="1">
          <mxGeometry x="280" y="420" width="70" height="40" as="geometry" />
        </mxCell>
        <mxCell id="W8-nHX-Yf4Dh4idE8KpP-41" value="&lt;span style=&quot;font-size: 14px&quot;&gt;&lt;b&gt;NIC&lt;/b&gt;&lt;/span&gt;" style="rounded=0;whiteSpace=wrap;html=1;strokeWidth=3;opacity=0;fillColor=#d5e8d4;strokeColor=#82b366;" vertex="1" parent="1">
          <mxGeometry x="293.5" y="430" width="43" height="20" as="geometry" />
        </mxCell>
        <mxCell id="W8-nHX-Yf4Dh4idE8KpP-44" value="" style="edgeStyle=elbowEdgeStyle;elbow=vertical;endArrow=classic;html=1;strokeWidth=2;exitX=0.117;exitY=-0.09;exitDx=0;exitDy=0;exitPerimeter=0;" edge="1" parent="1" source="W8-nHX-Yf4Dh4idE8KpP-40">
          <mxGeometry width="50" height="50" relative="1" as="geometry">
            <mxPoint x="270" y="440" as="sourcePoint" />
            <mxPoint x="110" y="300" as="targetPoint" />
          </mxGeometry>
        </mxCell>
        <mxCell id="W8-nHX-Yf4Dh4idE8KpP-45" value="" style="edgeStyle=segmentEdgeStyle;endArrow=classic;html=1;strokeWidth=2;exitX=1;exitY=0.5;exitDx=0;exitDy=0;" edge="1" parent="1" source="W8-nHX-Yf4Dh4idE8KpP-40">
          <mxGeometry width="50" height="50" relative="1" as="geometry">
            <mxPoint x="590" y="350" as="sourcePoint" />
            <mxPoint x="640" y="300" as="targetPoint" />
            <Array as="points">
              <mxPoint x="640" y="440" />
            </Array>
          </mxGeometry>
        </mxCell>
        <mxCell id="W8-nHX-Yf4Dh4idE8KpP-46" value="" style="edgeStyle=segmentEdgeStyle;endArrow=classic;html=1;strokeWidth=2;entryX=0.885;entryY=1.028;entryDx=0;entryDy=0;entryPerimeter=0;" edge="1" parent="1" target="W8-nHX-Yf4Dh4idE8KpP-37">
          <mxGeometry width="50" height="50" relative="1" as="geometry">
            <mxPoint x="350" y="429.94" as="sourcePoint" />
            <mxPoint x="404" y="320" as="targetPoint" />
            <Array as="points">
              <mxPoint x="404" y="430" />
            </Array>
          </mxGeometry>
        </mxCell>
        <mxCell id="W8-nHX-Yf4Dh4idE8KpP-47" value="" style="endArrow=none;html=1;strokeWidth=2;exitX=0.063;exitY=-0.025;exitDx=0;exitDy=0;exitPerimeter=0;" edge="1" parent="1">
          <mxGeometry width="50" height="50" relative="1" as="geometry">
            <mxPoint x="326.0300000000002" y="260" as="sourcePoint" />
            <mxPoint x="323.98" y="160" as="targetPoint" />
          </mxGeometry>
        </mxCell>
        <mxCell id="W8-nHX-Yf4Dh4idE8KpP-48" value="&lt;b&gt;&lt;font style=&quot;font-size: 14px&quot;&gt;LOCALHOST&lt;/font&gt;&lt;/b&gt;" style="rounded=0;whiteSpace=wrap;html=1;strokeWidth=3;opacity=0;" vertex="1" parent="1">
          <mxGeometry x="245" y="460" width="140" height="60" as="geometry" />
        </mxCell>
        <mxCell id="W8-nHX-Yf4Dh4idE8KpP-49" value="&lt;code&gt;172.0.0.1&lt;/code&gt;" style="rounded=0;whiteSpace=wrap;html=1;strokeWidth=3;opacity=0;" vertex="1" parent="1">
          <mxGeometry x="245" y="480" width="140" height="60" as="geometry" />
        </mxCell>
      </root>
    </mxGraphModel>
  </diagram>
</mxfile>
